<svg width="16" height="16" viewBox="0 0 16 16" fill="none" xmlns="http://www.w3.org/2000/svg">
<path d="M2.1458 5.44072L7.694 2.08623C7.78725 2.0298 7.89395 2 8.0027 2C8.11145 2 8.21815 2.0298 8.3114 2.08623L13.8542 5.44133C13.8987 5.4682 13.9355 5.50624 13.961 5.55173C13.9866 5.59722 14 5.64862 14 5.7009V13.3949C14 13.5554 13.9368 13.7093 13.8243 13.8228C13.7117 13.9363 13.5591 14 13.4 14H2.6C2.44087 14 2.28826 13.9363 2.17574 13.8228C2.06321 13.7093 2 13.5554 2 13.3949V5.70029C1.99999 5.64801 2.01341 5.59662 2.03897 5.55112C2.06452 5.50563 2.10133 5.46759 2.1458 5.44072ZM11.8076 6.28176L8.0366 9.57272L4.1882 6.27813L3.4118 7.20026L8.0438 11.1665L12.5924 7.19723L11.8076 6.28176V6.28176Z" fill="#0960E3"/>
</svg>
